<svg height="511pt" viewBox="-26 1 511 511.99998" width="511pt" xmlns="http://www.w3.org/2000/svg"><path d="m18.960938 249.523438h62.722656v36.496093h-62.722656zm0 0" fill="#d8d7da"/><path d="m18.960938 301.578125c-10.152344 0-18.460938-8.308594-18.460938-18.464844v-30.683593c0-10.152344 8.308594-18.460938 18.460938-18.460938 10.15625 0 18.460937 8.308594 18.460937 18.460938v30.683593c0 10.15625-8.304687 18.464844-18.460937 18.464844zm0 0" fill="#eaeaea"/><path d="m378.96875 249.523438h62.722656v36.496093h-62.722656zm0 0" fill="#d8d7da"/><path d="m441.6875 301.578125c10.15625 0 18.460938-8.308594 18.460938-18.464844v-30.683593c0-10.152344-8.304688-18.460938-18.460938-18.460938-10.152344 0-18.460938 8.308594-18.460938 18.460938v30.683593c0 10.15625 8.308594 18.464844 18.460938 18.464844zm0 0" fill="#eaeaea"/><path d="m394.019531 392c-86.703125 7.011719-240.6875 7.011719-327.386719 0-24.191406-1.957031-43.035156 20.5625-36.816406 44.023438 3.96875 14.96875 8.371094 32.976562 12.734375 53.679687 2.738281 12.992187 14.203125 22.296875 27.480469 22.296875h320.589844c13.277344 0 24.742187-9.304688 27.480468-22.296875 4.363282-20.703125 8.765626-38.710937 12.734376-53.679687 6.21875-23.460938-12.625-45.980469-36.816407-44.023438zm0 0" fill="#eac2ff"/><path d="m66.632812 392c-24.195312-1.957031-43.039062 20.5625-36.816406 44.023438 3.96875 14.96875 8.371094 32.976562 12.734375 53.679687 2.738281 12.992187 14.203125 22.296875 27.480469 22.296875h150.332031c43.523438-28.703125 54.726563-60.058594 54.726563-60.058594v-55.007812c-73.871094 1.089844-154.292969-.554688-208.457032-4.933594zm0 0" fill="#dfaeff"/><path d="m131.960938 395.601562c-24.066407-.863281-46.316407-2.0625-65.328126-3.601562-24.195312-1.957031-43.039062 20.5625-36.816406 44.023438 3.96875 14.96875 8.371094 32.976562 12.734375 53.679687 2.738281 12.992187 14.203125 22.296875 27.480469 22.296875h95.222656c-18.707031-39.621094-28.734375-88.582031-33.292968-116.398438zm0 0" fill="#8b997f"/><path d="m328.691406 395.601562c24.066406-.863281 46.3125-2.0625 65.328125-3.601562 24.191407-1.957031 43.035157 20.5625 36.8125 44.023438-3.96875 14.96875-8.371093 32.976562-12.734375 53.679687-2.734375 12.992187-14.203125 22.296875-27.476562 22.296875h-95.226563c18.707031-39.621094 28.734375-88.582031 33.296875-116.398438zm0 0" fill="#9dad92"/><path d="m230.324219 0c-55.566407 0-101.574219 7.039062-135.179688 14.71875-32.375 7.398438-53.300781 39.007812-47.011719 71.617188 13.738282 71.289062 13.890626 167.707031 13.894532 169.636718v33.753906c0 92.566407 75.734375 168.300782 168.300781 168.300782 92.5625 0 168.296875-75.734375 168.296875-168.300782v-33.753906c.003906-1.929687.15625-98.347656 13.894531-169.636718 6.289063-32.609376-14.636719-64.21875-47.011719-71.617188-33.605468-7.679688-79.613281-14.71875-135.183593-14.71875zm0 0" fill="#c8efb9"/><path d="m62.023438 289.726562c0 92.566407 75.734374 168.300782 168.300781 168.300782h.003906c22.695313 0 44.394531-4.558594 64.195313-12.796875-39.175782-7.941407-70.941407-26.402344-94.789063-45.398438-32.003906-25.5-42.402344-69.765625-24.855469-106.734375 60.847656-128.191406 45.625-225.847656 45.625-225.847656v-67.1757812c-51.179687.7656252-93.753906 7.4218752-125.359375 14.6445312-32.375 7.398438-53.300781 39.007812-47.011719 71.617188 13.738282 71.289062 13.890626 167.707031 13.894532 169.636718v33.753906zm0 0" fill="#b2e59c"/><path d="m124.261719 76.746094-27.5625 66.296875c-4.402344 10.59375-.589844 22.816406 9.054687 29.027343l26.234375 16.894532-11.429687 28.007812c-4.464844 10.941406 8.324218 20.800782 17.769531 13.703125l44.886719-33.726562c9.089844-6.832031 11.039062-19.683594 4.382812-28.902344l-21.675781-30.015625 33.664063-70.78125zm0 0" fill="#ff929f"/><path d="m398.160156 34.085938c-8.308594-9.398438-19.542968-16.367188-32.65625-19.367188-33.601562-7.679688-79.609375-14.71875-135.179687-14.71875-55.566407 0-101.574219 7.039062-135.179688 14.71875-13.113281 2.996094-24.34375 9.96875-32.65625 19.367188l-25.871093 30.445312c-7.320313 8.613281-.414063 21.753906 10.832031 20.617188l35.320312-3.578126 36.65625 23.023438c7.917969 4.976562 17.949219 5.117188 26.003907.371094l43.988281-25.914063 21.765625 21.214844c10.652344 10.382813 27.632812 10.382813 38.285156 0l21.765625-21.214844 43.984375 25.914063c8.058594 4.746094 18.089844 4.605468 26.007812-.371094l36.65625-23.023438 35.320313 3.578126c11.246094 1.136718 18.148437-12.003907 10.828125-20.617188zm0 0" fill="#898890"/><path d="m230.324219 352.667969c-15.988281 0-28.945313-12.960938-28.945313-28.949219v-21.046875c0-4.363281 3.535156-7.902344 7.902344-7.902344h42.089844c4.367187 0 7.902344 3.539063 7.902344 7.902344v21.046875c0 15.988281-12.960938 28.949219-28.949219 28.949219zm0 0" fill="#57565c"/><path d="m164.371094 323.71875c0-13.582031-13.824219-24.589844-30.878906-24.589844-17.054688 0-30.878907 11.007813-30.878907 24.589844 0 13.578125 13.824219 24.589844 30.878907 24.589844 17.054687 0 30.878906-11.011719 30.878906-24.589844zm0 0" fill="#ffa6bb"/><path d="m358.035156 323.71875c0-13.582031-13.824218-24.589844-30.878906-24.589844-17.050781 0-30.875 11.007813-30.875 24.589844 0 13.578125 13.824219 24.589844 30.875 24.589844 17.054688 0 30.878906-11.011719 30.878906-24.589844zm0 0" fill="#ffa6bb"/><g fill="#57565c"><path d="m313.417969 310.21875c-4.269531 0-7.726563-3.457031-7.726563-7.726562v-12.824219c0-4.269531 3.457032-7.726563 7.726563-7.726563 4.265625 0 7.726562 3.457032 7.726562 7.726563v12.824219c0 4.269531-3.460937 7.726562-7.726562 7.726562zm0 0"/><path d="m147.234375 310.21875c-4.269531 0-7.726563-3.457031-7.726563-7.726562v-12.824219c0-4.269531 3.457032-7.726563 7.726563-7.726563 4.265625 0 7.726563 3.457032 7.726563 7.726563v12.824219c0 4.269531-3.460938 7.726562-7.726563 7.726562zm0 0"/></g></svg>