<svg xmlns="http://www.w3.org/2000/svg" viewBox="-26 1 511 512">
  <path fill="#d8d7da" d="M18.96 249.523h62.724v36.497H18.96zm0 0"/>
  <path fill="#eaeaea" d="M18.96 301.578C8.81 301.578.5 293.27.5 283.113V252.43c0-10.153 8.309-18.461 18.46-18.461 10.157 0 18.462 8.308 18.462 18.46v30.684c0 10.157-8.305 18.465-18.461 18.465zm0 0"/>
  <path fill="#d8d7da" d="M378.969 249.523h62.722v36.497H378.97zm0 0"/>
  <path fill="#eaeaea" d="M441.688 301.578c10.156 0 18.46-8.308 18.46-18.465V252.43c0-10.153-8.304-18.461-18.46-18.461-10.153 0-18.461 8.308-18.461 18.46v30.684c0 10.157 8.308 18.465 18.46 18.465zm0 0"/>
  <path fill="#eac2ff" d="M394.02 392c-86.704 7.012-240.688 7.012-327.387 0-24.192-1.957-43.035 20.563-36.817 44.023 3.97 14.97 8.371 32.977 12.735 53.68C45.289 502.695 56.754 512 70.03 512h320.59c13.277 0 24.742-9.305 27.48-22.297 4.364-20.703 8.766-38.71 12.735-53.68 6.219-23.46-12.625-45.98-36.816-44.023zm0 0"/>
  <path fill="#dfaeff" d="M66.633 392c-24.195-1.957-43.04 20.563-36.817 44.023 3.97 14.97 8.372 32.977 12.735 53.68C45.289 502.695 56.754 512 70.03 512h150.332c43.524-28.703 54.727-60.059 54.727-60.059v-55.007c-73.871 1.09-154.293-.555-208.457-4.934zm0 0"/>
  <path fill="#8b997f" d="M131.96 395.602c-24.065-.864-46.315-2.063-65.327-3.602-24.195-1.957-43.04 20.563-36.817 44.023 3.97 14.97 8.372 32.977 12.735 53.68C45.289 502.695 56.754 512 70.03 512h95.223c-18.707-39.621-28.734-88.582-33.293-116.398zm0 0"/>
  <path fill="#9dad92" d="M328.691 395.602c24.067-.864 46.313-2.063 65.329-3.602 24.19-1.957 43.035 20.563 36.812 44.023-3.969 14.97-8.371 32.977-12.734 53.68C415.363 502.695 403.895 512 390.62 512h-95.226c18.707-39.621 28.734-88.582 33.296-116.398zm0 0"/>
  <path fill="#c8efb9" d="M230.324 0C174.758 0 128.75 7.04 95.144 14.719c-32.374 7.398-53.3 39.008-47.011 71.617 13.738 71.289 13.89 167.707 13.894 169.637v33.754c0 92.566 75.735 168.3 168.301 168.3 92.563 0 168.297-75.734 168.297-168.3v-33.754c.004-1.93.156-98.348 13.895-169.637 6.289-32.61-14.637-64.219-47.012-71.617C331.902 7.039 285.895 0 230.324 0zm0 0"/>
  <path fill="#b2e59c" d="M62.023 289.727c0 92.566 75.735 168.3 168.301 168.3h.004c22.695 0 44.395-4.558 64.195-12.797-39.175-7.94-70.941-26.402-94.789-45.398-32.004-25.5-42.402-69.766-24.855-106.734C235.727 164.906 220.504 67.25 220.504 67.25V.074C169.324.84 126.75 7.496 95.144 14.72c-32.374 7.398-53.3 39.008-47.011 71.617 13.738 71.289 13.89 167.707 13.894 169.637v33.754zm0 0"/>
  <path fill="#ff929f" d="M124.262 76.746l-27.563 66.297c-4.402 10.594-.59 22.816 9.055 29.027l26.234 16.895-11.43 28.008c-4.464 10.941 8.325 20.8 17.77 13.703l44.887-33.727c9.09-6.832 11.039-19.683 4.383-28.902l-21.676-30.016 33.664-70.781zm0 0"/>
  <path fill="#898890" d="M398.16 34.086c-8.308-9.399-19.543-16.367-32.656-19.367C331.902 7.039 285.894 0 230.324 0 174.758 0 128.75 7.04 95.144 14.719a61.873 61.873 0 0 0-32.656 19.367L36.618 64.53c-7.321 8.614-.415 21.754 10.831 20.617l35.32-3.578 36.657 23.024a25.009 25.009 0 0 0 26.004.37l43.988-25.913 21.766 21.215c10.652 10.382 27.632 10.382 38.285 0l21.765-21.215 43.985 25.914a25.016 25.016 0 0 0 26.008-.371l36.656-23.024 35.32 3.578c11.246 1.137 18.149-12.003 10.828-20.617zm0 0"/>
  <path fill="#57565c" d="M230.324 352.668c-15.988 0-28.945-12.961-28.945-28.95v-21.046a7.901 7.901 0 0 1 7.902-7.902h42.09a7.901 7.901 0 0 1 7.902 7.902v21.047c0 15.988-12.96 28.949-28.949 28.949zm0 0"/>
  <path fill="#ffa6bb" d="M164.371 323.719c0-13.582-13.824-24.59-30.879-24.59-17.054 0-30.879 11.008-30.879 24.59 0 13.578 13.825 24.59 30.88 24.59 17.054 0 30.878-11.012 30.878-24.59zm0 0M358.035 323.719c0-13.582-13.824-24.59-30.879-24.59-17.05 0-30.875 11.008-30.875 24.59 0 13.578 13.824 24.59 30.875 24.59 17.055 0 30.88-11.012 30.88-24.59zm0 0"/>
  <g fill="#57565c">
    <path d="M313.418 310.219a7.724 7.724 0 0 1-7.727-7.727v-12.824a7.724 7.724 0 0 1 7.727-7.727 7.726 7.726 0 0 1 7.727 7.727v12.824c0 4.27-3.461 7.727-7.727 7.727zm0 0M147.234 310.219a7.724 7.724 0 0 1-7.726-7.727v-12.824a7.724 7.724 0 0 1 7.726-7.727 7.726 7.726 0 0 1 7.727 7.727v12.824c0 4.27-3.461 7.727-7.727 7.727zm0 0"/>
  </g>
</svg>
