<svg xmlns="http://www.w3.org/2000/svg" viewBox="-53 0 512 512">
  <path fill="#485877" d="M274.703 390.45H129.758S60.855 420.647 60.855 512H343.61c0-91.352-68.906-121.55-68.906-121.55zm0 0"/>
  <path fill="#efedee" d="M202.602 0c-38.727-.07-75.004 11.098-105.86 30.36l-4.14 8.73h-8.72C33.146 76.41 0 136.78 0 203.965v23.95c0 68.546 55.57 121.698 124.121 121.698v25.258c0 14.516 11.766 26.277 26.277 26.277h5.239l7.726-2.613 7.727 2.613h23.785l7.727-2.613 7.726 2.613h23.79l7.726-2.613 7.726 2.613h5.235c14.511 0 26.277-11.761 26.277-26.277v-25.258c68.55 0 124.121-53.152 124.121-121.699v-23.95C405.203 92.532 314.035-.198 202.602 0zm0 0"/>
  <path fill="#334060" d="M213.977 305.824l-6.266-12.097c-2.316-4.473-8.746-4.383-10.938.156l-5.828 12.097c-1.957 4.06 1 8.77 5.508 8.77h12.094c4.582 0 7.535-4.855 5.43-8.926zm0 0M304.066 512v-40.238a7.726 7.726 0 0 0-7.726-7.727 7.726 7.726 0 0 0-7.727 7.727V512zm0 0M115.852 512v-40.238a7.726 7.726 0 1 0-15.453 0V512zm0 0M171.086 401.148v-37.343a7.724 7.724 0 0 0-7.727-7.727 7.726 7.726 0 0 0-7.726 7.727v37.343zm0 0M210.328 401.148v-37.343a7.724 7.724 0 0 0-7.726-7.727 7.724 7.724 0 0 0-7.727 7.727v37.343zm0 0M249.57 401.148v-37.343c0-4.27-3.46-7.727-7.726-7.727a7.724 7.724 0 0 0-7.727 7.727v37.343zm0 0"/>
  <path fill="#efedee" d="M209.957 512v-24.55h58.973a7.726 7.726 0 1 0 0-15.453h-58.973v-19.145h58.973a7.726 7.726 0 1 0 0-15.454H135.535a7.726 7.726 0 0 0-7.726 7.727 7.724 7.724 0 0 0 7.726 7.727h58.969v19.144h-58.969a7.724 7.724 0 0 0-7.726 7.727 7.726 7.726 0 0 0 7.726 7.726h58.969V512zm0 0"/>
  <path fill="#334060" d="M114.996 268.277a7.724 7.724 0 0 0-7.726 7.727V295a7.724 7.724 0 0 0 7.726 7.727 7.726 7.726 0 0 0 7.727-7.727v-18.996a7.729 7.729 0 0 0-7.727-7.727zm0 0M297.195 295v-18.996a7.726 7.726 0 1 0-15.453 0V295c0 4.27 3.461 7.727 7.727 7.727a7.724 7.724 0 0 0 7.726-7.727zm0 0"/>
  <path fill="#485877" d="M102.578 77.074H84.801a7.723 7.723 0 0 0-7.02 10.953l17.86 38.836a7.722 7.722 0 0 0 7.023 4.5c1.078 0 2.176-.23 3.223-.71a7.725 7.725 0 0 0 3.793-10.247L96.86 92.523h18.136a7.719 7.719 0 0 0 6.559-3.644 7.72 7.72 0 0 0 .37-7.492L97.2 31.16a8.02 8.02 0 0 0-.457-.8 204.76 204.76 0 0 0-12.86 8.73zm0 0"/>
  <path fill="#d4d4d4" d="M30.906 227.914v-23.95C30.906 97.728 113.77 8.493 218.055.575A200.404 200.404 0 0 0 202.602 0C91.168-.2 0 92.531 0 203.965v23.95c0 68.55 55.57 121.702 124.121 121.702-68.55-.004-93.215-53.156-93.215-121.703zm0 0"/>
  <path fill="#334060" d="M96.742 30.363c-3.3 2.059-6.535 4.211-9.707 6.453 0 .004-.004.004-.004.004a200.668 200.668 0 0 0-3.144 2.27h-.004l9.105 18.5a207.451 207.451 0 0 1 11.926-10.766L97.2 31.16a7.543 7.543 0 0 0-.457-.797zm0 0"/>
</svg>
