<svg xmlns="http://www.w3.org/2000/svg" height="512pt" version="1.1" viewBox="-53 0 512 512.0003" width="512pt">
<g id="surface1">
<path d="M 274.703125 390.449219 L 129.757812 390.449219 C 129.757812 390.449219 60.855469 420.648438 60.855469 512 L 343.609375 512 C 343.609375 420.648438 274.703125 390.449219 274.703125 390.449219 Z M 274.703125 390.449219 " style=" stroke:none;fill-rule:nonzero;fill:rgb(28.235294%,34.509804%,46.666667%);fill-opacity:1;" />
<path d="M 202.601562 0 C 163.875 -0.0703125 127.597656 11.097656 96.742188 30.359375 L 92.601562 39.089844 L 83.882812 39.089844 C 33.144531 76.410156 0 136.78125 0 203.964844 L 0 227.914062 C 0 296.460938 55.570312 349.613281 124.121094 349.613281 L 124.121094 374.871094 C 124.121094 389.386719 135.886719 401.148438 150.398438 401.148438 L 155.636719 401.148438 L 163.363281 398.535156 L 171.089844 401.148438 L 194.875 401.148438 L 202.601562 398.535156 L 210.328125 401.148438 L 234.117188 401.148438 L 241.84375 398.535156 L 249.570312 401.148438 L 254.804688 401.148438 C 269.316406 401.148438 281.082031 389.386719 281.082031 374.871094 L 281.082031 349.613281 C 349.632812 349.613281 405.203125 296.460938 405.203125 227.914062 L 405.203125 203.964844 C 405.203125 92.53125 314.035156 -0.199219 202.601562 0 Z M 202.601562 0 " style=" stroke:none;fill-rule:nonzero;fill:rgb(93.72549%,92.941176%,93.333333%);fill-opacity:1;" />
<path d="M 213.976562 305.824219 L 207.710938 293.726562 C 205.394531 289.253906 198.964844 289.34375 196.773438 293.882812 L 190.945312 305.980469 C 188.988281 310.039062 191.945312 314.75 196.453125 314.75 L 208.546875 314.75 C 213.128906 314.75 216.082031 309.894531 213.976562 305.824219 Z M 213.976562 305.824219 " style=" stroke:none;fill-rule:nonzero;fill:rgb(20%,25.098039%,37.647059%);fill-opacity:1;" />
<path d="M 304.066406 512 L 304.066406 471.761719 C 304.066406 467.496094 300.609375 464.035156 296.339844 464.035156 C 292.070312 464.035156 288.613281 467.496094 288.613281 471.761719 L 288.613281 512 Z M 304.066406 512 " style=" stroke:none;fill-rule:nonzero;fill:rgb(20%,25.098039%,37.647059%);fill-opacity:1;" />
<path d="M 115.851562 512 L 115.851562 471.761719 C 115.851562 467.496094 112.390625 464.035156 108.125 464.035156 C 103.855469 464.035156 100.398438 467.496094 100.398438 471.761719 L 100.398438 512 Z M 115.851562 512 " style=" stroke:none;fill-rule:nonzero;fill:rgb(20%,25.098039%,37.647059%);fill-opacity:1;" />
<path d="M 171.085938 401.148438 L 171.085938 363.804688 C 171.085938 359.535156 167.628906 356.078125 163.359375 356.078125 C 159.09375 356.078125 155.632812 359.535156 155.632812 363.804688 L 155.632812 401.148438 Z M 171.085938 401.148438 " style=" stroke:none;fill-rule:nonzero;fill:rgb(20%,25.098039%,37.647059%);fill-opacity:1;" />
<path d="M 210.328125 401.148438 L 210.328125 363.804688 C 210.328125 359.535156 206.871094 356.078125 202.601562 356.078125 C 198.332031 356.078125 194.875 359.535156 194.875 363.804688 L 194.875 401.148438 Z M 210.328125 401.148438 " style=" stroke:none;fill-rule:nonzero;fill:rgb(20%,25.098039%,37.647059%);fill-opacity:1;" />
<path d="M 249.570312 401.148438 L 249.570312 363.804688 C 249.570312 359.535156 246.109375 356.078125 241.84375 356.078125 C 237.574219 356.078125 234.117188 359.535156 234.117188 363.804688 L 234.117188 401.148438 Z M 249.570312 401.148438 " style=" stroke:none;fill-rule:nonzero;fill:rgb(20%,25.098039%,37.647059%);fill-opacity:1;" />
<path d="M 209.957031 512 L 209.957031 487.449219 L 268.929688 487.449219 C 273.195312 487.449219 276.65625 483.988281 276.65625 479.722656 C 276.65625 475.453125 273.195312 471.996094 268.929688 471.996094 L 209.957031 471.996094 L 209.957031 452.851562 L 268.929688 452.851562 C 273.195312 452.851562 276.65625 449.394531 276.65625 445.125 C 276.65625 440.859375 273.195312 437.398438 268.929688 437.398438 L 135.535156 437.398438 C 131.265625 437.398438 127.808594 440.859375 127.808594 445.125 C 127.808594 449.394531 131.265625 452.851562 135.535156 452.851562 L 194.503906 452.851562 L 194.503906 471.996094 L 135.535156 471.996094 C 131.265625 471.996094 127.808594 475.453125 127.808594 479.722656 C 127.808594 483.988281 131.265625 487.449219 135.535156 487.449219 L 194.503906 487.449219 L 194.503906 512 Z M 209.957031 512 " style=" stroke:none;fill-rule:nonzero;fill:rgb(93.72549%,92.941176%,93.333333%);fill-opacity:1;" />
<path d="M 114.996094 268.277344 C 110.726562 268.277344 107.269531 271.734375 107.269531 276.003906 L 107.269531 295 C 107.269531 299.269531 110.726562 302.726562 114.996094 302.726562 C 119.261719 302.726562 122.722656 299.269531 122.722656 295 L 122.722656 276.003906 C 122.722656 271.738281 119.261719 268.277344 114.996094 268.277344 Z M 114.996094 268.277344 " style=" stroke:none;fill-rule:nonzero;fill:rgb(20%,25.098039%,37.647059%);fill-opacity:1;" />
<path d="M 297.195312 295 L 297.195312 276.003906 C 297.195312 271.738281 293.738281 268.277344 289.46875 268.277344 C 285.203125 268.277344 281.742188 271.738281 281.742188 276.003906 L 281.742188 295 C 281.742188 299.269531 285.203125 302.726562 289.46875 302.726562 C 293.738281 302.726562 297.195312 299.269531 297.195312 295 Z M 297.195312 295 " style=" stroke:none;fill-rule:nonzero;fill:rgb(20%,25.098039%,37.647059%);fill-opacity:1;" />
<path d="M 102.578125 77.074219 L 84.800781 77.074219 C 82.167969 77.074219 79.714844 78.414062 78.296875 80.628906 C 76.878906 82.847656 76.683594 85.632812 77.78125 88.027344 L 95.640625 126.863281 C 96.941406 129.695312 99.738281 131.363281 102.664062 131.363281 C 103.742188 131.363281 104.839844 131.132812 105.886719 130.652344 C 109.765625 128.871094 111.460938 124.28125 109.679688 120.40625 L 96.859375 92.523438 L 114.996094 92.523438 C 117.664062 92.523438 120.144531 91.148438 121.554688 88.878906 C 122.964844 86.613281 123.105469 83.78125 121.925781 81.386719 L 97.199219 31.160156 C 97.0625 30.878906 96.90625 30.617188 96.742188 30.359375 C 92.339844 33.109375 88.050781 36.023438 83.882812 39.089844 Z M 102.578125 77.074219 " style=" stroke:none;fill-rule:nonzero;fill:rgb(28.235294%,34.509804%,46.666667%);fill-opacity:1;" />
<path d="M 30.90625 227.914062 L 30.90625 203.964844 C 30.90625 97.726562 113.769531 8.492188 218.054688 0.574219 C 212.953125 0.1875 207.800781 -0.0078125 202.601562 0 C 91.167969 -0.199219 0 92.53125 0 203.964844 L 0 227.914062 C 0 296.464844 55.570312 349.617188 124.121094 349.617188 C 55.570312 349.613281 30.90625 296.460938 30.90625 227.914062 Z M 30.90625 227.914062 " style=" stroke:none;fill-rule:nonzero;fill:rgb(83.137255%,83.137255%,83.137255%);fill-opacity:1;" />
<path d="M 96.742188 30.363281 C 93.441406 32.421875 90.207031 34.574219 87.035156 36.816406 C 87.035156 36.820312 87.03125 36.820312 87.03125 36.820312 C 85.976562 37.566406 84.925781 38.324219 83.886719 39.089844 C 83.882812 39.089844 83.882812 39.089844 83.882812 39.089844 L 92.988281 57.589844 C 96.824219 53.847656 100.800781 50.257812 104.914062 46.824219 L 97.199219 31.160156 C 97.0625 30.878906 96.90625 30.617188 96.742188 30.363281 Z M 96.742188 30.363281 " style=" stroke:none;fill-rule:nonzero;fill:rgb(20%,25.098039%,37.647059%);fill-opacity:1;" />
</g>
</svg>