<?xml version="1.0" encoding="iso-8859-1"?>
<!-- Generator: Adobe Illustrator 19.0.0, SVG Export Plug-In . SVG Version: 6.00 Build 0)  -->
<svg version="1.1" id="Capa_1" xmlns="http://www.w3.org/2000/svg" xmlns:xlink="http://www.w3.org/1999/xlink" x="0px" y="0px"
	 viewBox="0 0 512 512" style="enable-background:new 0 0 512 512;" xml:space="preserve">
<g>
	<path style="fill:#DC5A64;" d="M123.734,267.591c0,0-50.353-24.554-72.19-17.064c-14.783,5.072-34.647,25.197-45.937,37.669
		c-4.807,5.31-4.066,13.577,1.602,17.955c22.608,17.463,74.756,60.92,82.548,95.769h67.309l5.673-59.595L123.734,267.591z"/>
	<path style="fill:#DC5A64;" d="M388.266,267.591c0,0,50.353-24.554,72.19-17.064c14.783,5.072,34.647,25.197,45.937,37.669
		c4.807,5.31,4.066,13.577-1.602,17.955c-22.608,17.463-74.756,60.92-82.548,95.769h-67.309l-5.673-59.595L388.266,267.591z"/>
</g>
<g>
	<path style="fill:#BF4E57;" d="M483.869,265.834c-7.965-6.906-16.28-12.861-23.413-15.307c-21.836-7.49-72.19,17.064-72.19,17.064
		l-39.006,74.733l5.673,59.595h36.352c10.042-6.869,19.588-14.536,28.529-22.991C452.948,347.591,474.927,308.454,483.869,265.834z"
		/>
	<path style="fill:#BF4E57;" d="M162.74,342.324l-39.006-74.733c0,0-50.353-24.554-72.19-17.064
		c-7.133,2.447-15.449,8.402-23.414,15.308c8.941,42.62,30.921,81.756,64.056,113.093c8.94,8.455,18.486,16.12,28.528,22.991h36.352
		L162.74,342.324z"/>
</g>
<g>
	<path style="fill:#3A484A;" d="M378.443,379.461h-7.904l-24.315,56.477L370.54,512h29.706l7.726-7.163l7.726,7.163h44.753
		C460.452,388.45,378.443,379.461,378.443,379.461z"/>
	<path style="fill:#3A484A;" d="M141.46,379.461h-7.904c0,0-82.009,8.989-82.009,132.539h44.753l7.726-8.193l7.726,8.193h29.706
		l29.081-62.587L141.46,379.461z"/>
</g>
<path style="fill:#313D40;" d="M142.787,382.652l-1.327-3.191h-7.904c0,0-82.009,8.989-82.009,132.539h21.634
	C73.182,418.776,119.867,390.782,142.787,382.652z"/>
<rect x="141.464" y="379.457" style="fill:#EFEDEE;" width="229.081" height="132.543"/>
<path style="fill:#3A484A;" d="M22.765,222.027c0-59.587,24.449-115.527,68.844-157.513C135.597,22.911,193.979,0,256,0
	s120.403,22.911,164.391,64.513c44.395,41.987,68.845,97.926,68.845,157.513H22.765V222.027z"/>
<path style="fill:#313D40;" d="M143.118,64.513c37.841-35.788,86.338-57.728,138.637-63.166C273.259,0.464,264.667,0,256,0
	C193.979,0,135.597,22.911,91.609,64.513C47.213,106.5,22.765,162.44,22.765,222.026h51.509
	C74.274,162.44,98.722,106.5,143.118,64.513z"/>
<circle style="fill:#E3B098;" cx="462.644" cy="222.025" r="45.565"/>
<path style="fill:#FBC4AC;" d="M462.64,221.559c-0.064-25.572-8.777-50.36-24.176-70.778C384.401,79.102,337.076,55.339,256,120.344
	c-81.076-65.005-128.401-41.242-182.464,30.438c-15.399,20.416-24.112,45.205-24.176,70.778c0,0.156-0.001,0.311-0.001,0.467
	c0,107.933,92.516,195.43,206.641,195.43s206.641-87.497,206.641-195.43C462.641,221.87,462.641,221.715,462.64,221.559z"/>
<path style="fill:#E3B098;" d="M80.264,222.026c0-0.156,0-0.311,0.001-0.468c0.064-25.572,8.777-50.36,24.176-70.778
	c27.6-36.593,53.445-60.687,82.919-66.869c-43.335-8.506-77.019,18.071-113.825,66.869c-6.267,8.309-11.405,17.351-15.325,26.866
	c-2.4-0.767-5.302-1.187-8.852-1.187c-25.164,0-45.565,20.4-45.565,45.565c0,25.164,20.4,45.564,45.565,45.564
	c2.062,0,3.893-0.15,5.553-0.415C76.46,353.339,158.308,417.457,256,417.457c5.198,0,10.35-0.186,15.453-0.543
	C164.546,409.438,80.264,325.044,80.264,222.026z"/>
<path style="fill:#3A484A;" d="M152.006,225.09c-4.267,0-7.726-3.459-7.726-7.726v-20.22c0-4.267,3.459-7.726,7.726-7.726
	c4.267,0,7.726,3.459,7.726,7.726v20.22C159.733,221.631,156.273,225.09,152.006,225.09z"/>
<path style="fill:#F98084;" d="M165.776,254.811h-27.541c-4.267,0-7.726-3.459-7.726-7.726c0-4.267,3.459-7.726,7.726-7.726h27.541
	c4.267,0,7.726,3.459,7.726,7.726C173.502,251.352,170.043,254.811,165.776,254.811z"/>
<path style="fill:#3A484A;" d="M359.995,225.09c-4.267,0-7.726-3.459-7.726-7.726v-20.22c0-4.267,3.459-7.726,7.726-7.726
	c4.267,0,7.726,3.459,7.726,7.726v20.22C367.721,221.631,364.262,225.09,359.995,225.09z"/>
<path style="fill:#F98084;" d="M373.764,254.811h-27.54c-4.267,0-7.726-3.459-7.726-7.726c0-4.267,3.459-7.726,7.726-7.726h27.54
	c4.267,0,7.726,3.459,7.726,7.726C381.49,251.352,378.031,254.811,373.764,254.811z"/>
<g>
	<path style="fill:#313D40;" d="M400.246,512v-66.467c0-4.267,3.459-7.726,7.726-7.726s7.726,3.459,7.726,7.726V512H400.246z"/>
	<path style="fill:#313D40;" d="M96.301,512v-66.467c0-4.267,3.459-7.726,7.726-7.726c4.267,0,7.726,3.459,7.726,7.726V512H96.301z"
		/>
</g>
<g>
	<path style="fill:#EFEDEE;" d="M283.247,249.345c-2.622,0-5.179-1.335-6.629-3.746l-6.91-11.492
		c-2.199-3.657-1.018-8.404,2.639-10.604c3.656-2.199,8.404-1.018,10.603,2.639l6.91,11.492c2.199,3.657,1.018,8.404-2.639,10.604
		C285.976,248.988,284.603,249.345,283.247,249.345z"/>
	<path style="fill:#EFEDEE;" d="M228.753,249.345c-1.355,0-2.728-0.356-3.974-1.106c-3.657-2.199-4.839-6.947-2.639-10.604
		l6.91-11.492c2.199-3.657,6.947-4.838,10.603-2.639c3.657,2.199,4.839,6.947,2.639,10.604l-6.91,11.492
		C233.931,248.01,231.376,249.345,228.753,249.345z"/>
</g>
<path style="fill:#3A484A;" d="M256,243.879c-12.846,0-24.895-5.356-33.056-14.693c-2.808-3.213-2.481-8.094,0.732-10.902
	c3.212-2.807,8.093-2.481,10.902,0.732c5.227,5.98,13.035,9.411,21.422,9.411s16.195-3.429,21.423-9.411
	c2.808-3.213,7.689-3.54,10.902-0.732c3.213,2.808,3.541,7.689,0.731,10.902C280.894,238.523,268.846,243.879,256,243.879z"/>
<g>
	<path style="fill:#BF4E57;" d="M238.941,419.779c-42.442,30.288-70.563,34.165-70.563-15.456s28.121-45.744,70.563-15.456V419.779z
		"/>
	<path style="fill:#BF4E57;" d="M273.059,419.779c42.442,30.288,70.563,34.165,70.563-15.456s-28.121-45.744-70.563-15.456V419.779z
		"/>
</g>
<path style="fill:#DC5A64;" d="M324.881,393.413c-23.34-5.056-60.752,1.499-68.881,3.04c-8.127-1.541-45.542-8.097-68.881-3.04
	c-4.17,0.903-6.819,5.017-5.915,9.187c0.903,4.17,5.02,6.821,9.187,5.915c22.572-4.889,63.665,3.299,64.078,3.382
	c0.022,0.004,0.043,0.005,0.065,0.01c0.2,0.038,0.402,0.068,0.606,0.091c0.042,0.004,0.083,0.012,0.126,0.016
	c0.241,0.023,0.483,0.037,0.728,0.037c0.002,0,0.004,0,0.006,0c0.002,0,0.004,0,0.006,0c0.245,0,0.488-0.014,0.729-0.037
	c0.04-0.003,0.081-0.011,0.122-0.015c0.205-0.023,0.408-0.053,0.608-0.092c0.022-0.004,0.043-0.005,0.066-0.01
	c0.412-0.083,41.507-8.271,64.077-3.382c4.17,0.903,8.285-1.744,9.187-5.915C331.699,398.43,329.051,394.316,324.881,393.413z"/>
<g>
	<circle style="fill:#3A484A;" cx="256" cy="454.021" r="9.219"/>
	<circle style="fill:#3A484A;" cx="256" cy="485.586" r="9.219"/>
</g>
<path style="fill:#DC5A64;" d="M259.834,383.977h-7.67c-11.237,0-20.346,9.109-20.346,20.346l0,0
	c0,11.237,9.109,20.346,20.346,20.346h7.67c11.237,0,20.346-9.109,20.346-20.346l0,0
	C280.18,393.086,271.072,383.977,259.834,383.977z"/>
<g>
</g>
<g>
</g>
<g>
</g>
<g>
</g>
<g>
</g>
<g>
</g>
<g>
</g>
<g>
</g>
<g>
</g>
<g>
</g>
<g>
</g>
<g>
</g>
<g>
</g>
<g>
</g>
<g>
</g>
</svg>
