<svg xmlns="http://www.w3.org/2000/svg" viewBox="0 0 512 512">
  <g fill="#dc5a64">
    <path d="M123.734 267.591s-50.353-24.554-72.19-17.064c-14.783 5.072-34.647 25.197-45.937 37.669-4.807 5.31-4.066 13.577 1.602 17.955 22.608 17.463 74.756 60.92 82.548 95.769h67.309l5.673-59.595-39.005-74.734zM388.266 267.591s50.353-24.554 72.19-17.064c14.783 5.072 34.647 25.197 45.937 37.669 4.807 5.31 4.066 13.577-1.602 17.955-22.608 17.463-74.756 60.92-82.548 95.769h-67.309l-5.673-59.595 39.005-74.734z"/>
  </g>
  <g fill="#bf4e57">
    <path d="M483.869 265.834c-7.965-6.906-16.28-12.861-23.413-15.307-21.836-7.49-72.19 17.064-72.19 17.064l-39.006 74.733 5.673 59.595h36.352a232.733 232.733 0 0 0 28.529-22.991c33.134-31.337 55.113-70.474 64.055-113.094zM162.74 342.324l-39.006-74.733s-50.353-24.554-72.19-17.064c-7.133 2.447-15.449 8.402-23.414 15.308 8.941 42.62 30.921 81.756 64.056 113.093a232.835 232.835 0 0 0 28.528 22.991h36.352l5.674-59.595z"/>
  </g>
  <g fill="#3a484a">
    <path d="M378.443 379.461h-7.904l-24.315 56.477L370.54 512h29.706l7.726-7.163 7.726 7.163h44.753c.001-123.55-82.008-132.539-82.008-132.539zM141.46 379.461h-7.904S51.547 388.45 51.547 512H96.3l7.726-8.193 7.726 8.193h29.706l29.081-62.587-29.079-69.952z"/>
  </g>
  <path fill="#313d40" d="M142.787 382.652l-1.327-3.191h-7.904S51.547 388.45 51.547 512h21.634c.001-93.224 46.686-121.218 69.606-129.348z"/>
  <path fill="#efedee" d="M141.464 379.457h229.081V512H141.464z"/>
  <path fill="#3a484a" d="M22.765 222.027c0-59.587 24.449-115.527 68.844-157.513C135.597 22.911 193.979 0 256 0s120.403 22.911 164.391 64.513c44.395 41.987 68.845 97.926 68.845 157.513H22.765v.001z"/>
  <path fill="#313d40" d="M143.118 64.513c37.841-35.788 86.338-57.728 138.637-63.166A249.075 249.075 0 0 0 256 0C193.979 0 135.597 22.911 91.609 64.513 47.213 106.5 22.765 162.44 22.765 222.026h51.509c0-59.586 24.448-115.526 68.844-157.513z"/>
  <circle cx="462.644" cy="222.025" r="45.565" fill="#e3b098"/>
  <path fill="#fbc4ac" d="M462.64 221.559c-.064-25.572-8.777-50.36-24.176-70.778C384.401 79.102 337.076 55.339 256 120.344c-81.076-65.005-128.401-41.242-182.464 30.438-15.399 20.416-24.112 45.205-24.176 70.778l-.001.467c0 107.933 92.516 195.43 206.641 195.43s206.641-87.497 206.641-195.43l-.001-.468z"/>
  <path fill="#e3b098" d="M80.264 222.026l.001-.468c.064-25.572 8.777-50.36 24.176-70.778 27.6-36.593 53.445-60.687 82.919-66.869-43.335-8.506-77.019 18.071-113.825 66.869a121.455 121.455 0 0 0-15.325 26.866c-2.4-.767-5.302-1.187-8.852-1.187-25.164 0-45.565 20.4-45.565 45.565 0 25.164 20.4 45.564 45.565 45.564 2.062 0 3.893-.15 5.553-.415C76.46 353.339 158.308 417.457 256 417.457c5.198 0 10.35-.186 15.453-.543-106.907-7.476-191.189-91.87-191.189-194.888z"/>
  <path fill="#3a484a" d="M152.006 225.09a7.726 7.726 0 0 1-7.726-7.726v-20.22a7.726 7.726 0 1 1 15.452 0v20.22a7.725 7.725 0 0 1-7.726 7.726z"/>
  <path fill="#f98084" d="M165.776 254.811h-27.541a7.726 7.726 0 1 1 0-15.452h27.541a7.726 7.726 0 1 1 0 15.452z"/>
  <path fill="#3a484a" d="M359.995 225.09a7.726 7.726 0 0 1-7.726-7.726v-20.22a7.726 7.726 0 1 1 15.452 0v20.22a7.726 7.726 0 0 1-7.726 7.726z"/>
  <path fill="#f98084" d="M373.764 254.811h-27.54a7.726 7.726 0 1 1 0-15.452h27.54a7.726 7.726 0 1 1 0 15.452z"/>
  <g fill="#313d40">
    <path d="M400.246 512v-66.467a7.726 7.726 0 1 1 15.452 0V512h-15.452zM96.301 512v-66.467a7.726 7.726 0 1 1 15.452 0V512H96.301z"/>
  </g>
  <g fill="#efedee">
    <path d="M283.247 249.345a7.723 7.723 0 0 1-6.629-3.746l-6.91-11.492a7.727 7.727 0 0 1 13.242-7.965l6.91 11.492a7.727 7.727 0 0 1-2.639 10.604 7.68 7.68 0 0 1-3.974 1.107zM228.753 249.345a7.726 7.726 0 0 1-6.613-11.71l6.91-11.492a7.726 7.726 0 1 1 13.242 7.965l-6.91 11.492a7.724 7.724 0 0 1-6.629 3.745z"/>
  </g>
  <path fill="#3a484a" d="M256 243.879c-12.846 0-24.895-5.356-33.056-14.693a7.726 7.726 0 1 1 11.634-10.17c5.227 5.98 13.035 9.411 21.422 9.411s16.195-3.429 21.423-9.411a7.726 7.726 0 1 1 11.633 10.17c-8.162 9.337-20.21 14.693-33.056 14.693z"/>
  <g fill="#bf4e57">
    <path d="M238.941 419.779c-42.442 30.288-70.563 34.165-70.563-15.456s28.121-45.744 70.563-15.456v30.912zM273.059 419.779c42.442 30.288 70.563 34.165 70.563-15.456s-28.121-45.744-70.563-15.456v30.912z"/>
  </g>
  <path fill="#dc5a64" d="M324.881 393.413c-23.34-5.056-60.752 1.499-68.881 3.04-8.127-1.541-45.542-8.097-68.881-3.04a7.726 7.726 0 0 0-5.915 9.187c.903 4.17 5.02 6.821 9.187 5.915 22.572-4.889 63.665 3.299 64.078 3.382.022.004.043.005.065.01.2.038.402.068.606.091.042.004.083.012.126.016.241.023.483.037.728.037h.012c.245 0 .488-.014.729-.037.04-.003.081-.011.122-.015a7.61 7.61 0 0 0 .608-.092c.022-.004.043-.005.066-.01.412-.083 41.507-8.271 64.077-3.382a7.725 7.725 0 0 0 9.187-5.915 7.725 7.725 0 0 0-5.914-9.187z"/>
  <g fill="#3a484a">
    <circle cx="256" cy="454.021" r="9.219"/>
    <circle cx="256" cy="485.586" r="9.219"/>
  </g>
  <path fill="#dc5a64" d="M259.834 383.977h-7.67c-11.237 0-20.346 9.109-20.346 20.346s9.109 20.346 20.346 20.346h7.67c11.237 0 20.346-9.109 20.346-20.346s-9.108-20.346-20.346-20.346z"/>
</svg>
